<?xml version="1.0" encoding="utf-8"?>
<!-- Generator: Adobe Illustrator 17.0.0, SVG Export Plug-In . SVG Version: 6.00 Build 0)  -->
<!DOCTYPE svg PUBLIC "-//W3C//DTD SVG 1.1//EN" "http://www.w3.org/Graphics/SVG/1.1/DTD/svg11.dtd">
<svg version="1.1" id="Layer_1" xmlns="http://www.w3.org/2000/svg" xmlns:xlink="http://www.w3.org/1999/xlink" x="0px" y="0px"
	 width="471.486px" height="99.946px" viewBox="0 0 471.486 99.946" enable-background="new 0 0 471.486 99.946"
	 xml:space="preserve">
<g>
	<g id="Layer_2_1_">
		<g>
			<g>
				<g>
					<path fill="#6CB5DD" d="M50.818,33.781c3.942,0.203,7.51,1.813,10.215,4.338c0.232,0.216,0.455,0.442,0.674,0.671
						c0.712,0.686,1.349,1.449,1.895,2.278l0.002-0.001l0.043,0.07c0.147,0.226,0.287,0.457,0.421,0.692l35.879,52.602V0l0,0
						L50.818,33.781z"/>
				</g>
				<g>
					<path fill="#65A6CA" d="M99.946,94.431L64.067,41.829c-0.133-0.235-0.274-0.466-0.421-0.692l-0.043-0.07l-0.002,0.001
						c-0.546-0.829-1.183-1.591-1.895-2.278c2.774,2.909,4.482,6.845,4.482,11.182c0,0.261-0.007,0.519-0.02,0.777
						c-0.001,0.022-0.004,0.045-0.005,0.068l33.782,49.128l0,0l0,0V94.431L99.946,94.431z"/>
				</g>
				<g>
					<path fill="#2F7AA2" d="M49.128,66.164c-3.942-0.203-7.51-1.813-10.215-4.338c-0.232-0.216-0.455-0.442-0.674-0.671
						c-0.712-0.686-1.349-1.449-1.895-2.278l-0.002,0.001l-0.043-0.07c-0.147-0.226-0.287-0.457-0.421-0.692L0,5.515v94.431l0,0
						L49.128,66.164z"/>
				</g>
				<g>
					<path fill="#2E7195" d="M36.3,58.809l0.043,0.07l0.002-0.001c0.546,0.829,1.183,1.591,1.895,2.278
						c-2.775-2.909-4.482-6.845-4.482-11.183c0-0.261,0.007-0.519,0.02-0.777l0,0c0.001-0.022,0.004-0.045,0.005-0.067L0,0l0,0l0,0
						v5.515l0,0l35.879,52.602C36.013,58.352,36.153,58.583,36.3,58.809z"/>
				</g>
				<g>
					<path fill="#4F94C1" d="M33.782,49.128c0.203-3.942,1.813-7.51,4.337-10.215c0.216-0.232,0.442-0.455,0.671-0.674
						c0.686-0.712,1.449-1.349,2.278-1.895l-0.001-0.002l0.07-0.043c0.226-0.147,0.457-0.287,0.692-0.421L94.431,0H0l0,0
						L33.782,49.128z"/>
				</g>
				<g>
					<path fill="#4B88B1" d="M41.137,36.3l-0.07,0.043l0.001,0.002c-0.829,0.546-1.592,1.183-2.278,1.895
						c2.909-2.775,6.845-4.482,11.183-4.482c0.261,0,0.519,0.007,0.777,0.02c0.022,0.001,0.045,0.004,0.067,0.005L99.946,0l0,0
						h-5.515L41.829,35.879C41.594,36.013,41.363,36.153,41.137,36.3z"/>
				</g>
				<g>
					<path fill="#A3C8E9" d="M66.165,50.817c-0.203,3.942-1.813,7.51-4.338,10.215c-0.216,0.232-0.441,0.455-0.671,0.674
						c-0.686,0.712-1.449,1.349-2.278,1.895l0.001,0.002l-0.07,0.043c-0.226,0.147-0.457,0.287-0.692,0.421L5.515,99.946h94.431l0,0
						L66.165,50.817z"/>
				</g>
				<g>
					<path fill="#96B7D5" d="M58.809,63.645l0.07-0.043l-0.001-0.002c0.829-0.546,1.592-1.183,2.278-1.895
						c-2.909,2.775-6.845,4.482-11.183,4.482c-0.261,0-0.519-0.007-0.777-0.02l0,0c-0.022-0.001-0.045-0.004-0.067-0.005L0,99.946
						l0,0h5.515l52.602-35.879C58.352,63.933,58.583,63.792,58.809,63.645z"/>
				</g>
			</g>
		</g>
	</g>
	<g>
		<path fill="#FFFFFF" d="M156.054,29.995c-5.539,0-9.77,1.722-12.693,5.163c-2.925,3.443-4.387,8.218-4.387,14.324
			c0,2.9,0.35,5.551,1.048,7.958c0.699,2.407,1.734,4.465,3.106,6.172c1.37,1.708,3.079,3.041,5.124,3.999
			c2.044,0.958,4.437,1.436,7.182,1.436c1.708,0,3.183-0.065,4.425-0.194c1.242-0.129,2.225-0.297,2.95-0.505V49.016h9.783v25.852
			c-1.347,0.519-3.624,1.087-6.833,1.708c-3.209,0.621-6.91,0.931-11.102,0.931c-3.881,0-7.427-0.621-10.635-1.863
			c-3.21-1.243-5.939-3.054-8.19-5.435c-2.251-2.38-3.999-5.305-5.241-8.773c-1.243-3.467-1.863-7.453-1.863-11.956
			s0.686-8.488,2.057-11.956c1.371-3.468,3.248-6.406,5.629-8.812c2.38-2.407,5.175-4.231,8.385-5.473
			c3.208-1.242,6.625-1.863,10.248-1.863c2.484,0,4.696,0.169,6.637,0.505c1.941,0.338,3.61,0.712,5.008,1.126
			c1.397,0.415,2.548,0.855,3.455,1.32c0.905,0.466,1.539,0.803,1.902,1.009l-2.95,7.997c-1.553-0.932-3.481-1.72-5.784-2.368
			C161.01,30.319,158.59,29.995,156.054,29.995z"/>
		<path fill="#FFFFFF" d="M193.864,34.808c3.105,0,5.718,0.389,7.841,1.165c2.122,0.776,3.816,1.863,5.085,3.26
			c1.267,1.398,2.174,3.094,2.717,5.085c0.543,1.993,0.815,4.181,0.815,6.561V75.49c-1.45,0.31-3.636,0.687-6.56,1.126
			c-2.925,0.439-6.225,0.659-9.899,0.659c-2.434,0-4.658-0.233-6.677-0.698c-2.019-0.466-3.74-1.215-5.163-2.251
			c-1.424-1.034-2.536-2.38-3.339-4.037c-0.803-1.655-1.203-3.7-1.203-6.133c0-2.33,0.453-4.296,1.359-5.901
			c0.906-1.604,2.135-2.912,3.688-3.92c1.552-1.01,3.35-1.734,5.396-2.174c2.043-0.439,4.179-0.66,6.405-0.66
			c1.034,0,2.122,0.066,3.26,0.194c1.139,0.13,2.355,0.35,3.649,0.66v-1.552c0-1.087-0.13-2.122-0.388-3.106
			c-0.26-0.982-0.712-1.85-1.359-2.6c-0.648-0.75-1.502-1.332-2.562-1.747c-1.062-0.414-2.395-0.621-3.999-0.621
			c-2.174,0-4.167,0.155-5.977,0.466c-1.812,0.31-3.288,0.674-4.425,1.087l-1.165-7.609c1.191-0.414,2.923-0.827,5.201-1.242
			C188.842,35.016,191.275,34.808,193.864,34.808z M194.64,69.822c2.898,0,5.097-0.155,6.599-0.466V58.953
			c-0.518-0.155-1.269-0.31-2.251-0.466c-0.984-0.155-2.071-0.233-3.26-0.233c-1.036,0-2.084,0.078-3.144,0.233
			c-1.062,0.155-2.019,0.44-2.873,0.854c-0.854,0.415-1.54,0.998-2.057,1.747c-0.518,0.75-0.776,1.695-0.776,2.833
			c0,2.227,0.698,3.766,2.096,4.62C190.37,69.395,192.259,69.822,194.64,69.822z"/>
		<path fill="#FFFFFF" d="M232.836,77.198c-2.795-0.052-5.112-0.362-6.949-0.931c-1.838-0.569-3.3-1.384-4.386-2.446
			c-1.087-1.06-1.851-2.379-2.291-3.959c-0.44-1.579-0.659-3.377-0.659-5.396V17.729l9.394-1.553V62.68
			c0,1.139,0.09,2.096,0.271,2.872c0.181,0.776,0.505,1.436,0.971,1.98c0.466,0.543,1.099,0.958,1.903,1.242
			c0.802,0.285,1.824,0.505,3.067,0.66L232.836,77.198z"/>
		<path fill="#FFFFFF" d="M252.788,77.198c-2.795-0.052-5.112-0.362-6.949-0.931c-1.838-0.569-3.3-1.384-4.386-2.446
			c-1.087-1.06-1.851-2.379-2.291-3.959c-0.44-1.579-0.659-3.377-0.659-5.396V17.729l9.394-1.553V62.68
			c0,1.139,0.09,2.096,0.271,2.872c0.181,0.776,0.505,1.436,0.971,1.98c0.466,0.543,1.099,0.958,1.903,1.242
			c0.802,0.285,1.824,0.505,3.067,0.66L252.788,77.198z"/>
		<path fill="#FFFFFF" d="M269.091,23.94c0,1.759-0.57,3.157-1.707,4.192c-1.139,1.036-2.485,1.553-4.037,1.553
			c-1.605,0-2.977-0.517-4.115-1.553c-1.139-1.034-1.708-2.432-1.708-4.192c0-1.811,0.569-3.235,1.708-4.27
			c1.138-1.035,2.51-1.553,4.115-1.553c1.552,0,2.898,0.518,4.037,1.553C268.521,20.705,269.091,22.129,269.091,23.94z
			 M268.082,76.421h-9.394V35.818h9.394V76.421z"/>
		<path fill="#FFFFFF" d="M310.237,75.179c-1.813,0.466-4.167,0.946-7.066,1.437c-2.899,0.491-6.082,0.737-9.549,0.737
			c-3.26,0-5.991-0.466-8.19-1.397c-2.2-0.932-3.96-2.225-5.279-3.882c-1.32-1.656-2.265-3.636-2.834-5.939
			c-0.571-2.303-0.855-4.825-0.855-7.57V35.818h9.395V57.09c0,4.348,0.633,7.454,1.902,9.317c1.267,1.863,3.48,2.795,6.637,2.795
			c1.138,0,2.342-0.051,3.611-0.155c1.267-0.103,2.212-0.233,2.833-0.388v-32.84h9.395V75.179z"/>
		<path fill="#FFFFFF" d="M342.223,55.071c0-4.243-0.531-7.309-1.591-9.199c-1.062-1.889-3.041-2.834-5.939-2.834
			c-1.036,0-2.174,0.078-3.416,0.233c-1.242,0.155-2.174,0.285-2.795,0.388v32.763h-9.394V37.137
			c1.811-0.516,4.179-1.009,7.103-1.475c2.923-0.466,6.017-0.699,9.278-0.699c2.795,0,5.085,0.363,6.871,1.087
			c1.785,0.726,3.272,1.683,4.464,2.872c0.569-0.414,1.293-0.854,2.174-1.319c0.879-0.466,1.863-0.893,2.95-1.281
			c1.087-0.389,2.239-0.711,3.455-0.971c1.216-0.258,2.446-0.389,3.688-0.389c3.156,0,5.757,0.454,7.802,1.359
			c2.043,0.906,3.648,2.174,4.813,3.804c1.164,1.631,1.966,3.598,2.407,5.901c0.439,2.303,0.66,4.827,0.66,7.57v22.825h-9.395
			v-21.35c0-4.243-0.518-7.309-1.552-9.199c-1.036-1.889-3.028-2.834-5.978-2.834c-1.502,0-2.924,0.246-4.27,0.738
			c-1.347,0.492-2.355,0.971-3.027,1.436c0.414,1.295,0.698,2.667,0.854,4.115c0.155,1.45,0.233,3.002,0.233,4.658v22.437h-9.394
			V55.071z"/>
		<path fill="#FFFFFF" d="M432.435,49.482c0,4.607-0.674,8.67-2.019,12.188c-1.347,3.52-3.171,6.458-5.473,8.812
			c-2.303,2.355-4.982,4.128-8.035,5.318c-3.055,1.19-6.289,1.786-9.705,1.786c-3.416,0-6.651-0.596-9.704-1.786
			c-3.055-1.191-5.733-2.963-8.035-5.318c-2.303-2.355-4.128-5.292-5.473-8.812c-1.347-3.519-2.019-7.582-2.019-12.188
			c0-4.606,0.672-8.656,2.019-12.15c1.346-3.494,3.17-6.417,5.473-8.773c2.303-2.355,4.98-4.127,8.035-5.318
			c3.053-1.19,6.289-1.786,9.704-1.786c3.416,0,6.65,0.596,9.705,1.786c3.053,1.191,5.732,2.964,8.035,5.318
			c2.303,2.355,4.127,5.279,5.473,8.773C431.761,40.826,432.435,44.876,432.435,49.482z M426.845,49.482
			c0-3.622-0.466-6.871-1.397-9.743c-0.932-2.872-2.251-5.318-3.96-7.337c-1.708-2.019-3.765-3.558-6.172-4.619
			c-2.408-1.06-5.113-1.591-8.114-1.591c-3.002,0-5.706,0.531-8.113,1.591c-2.407,1.061-4.464,2.6-6.172,4.619
			s-3.027,4.465-3.96,7.337c-0.931,2.872-1.397,6.122-1.397,9.743c0,3.624,0.466,6.871,1.397,9.743
			c0.932,2.872,2.251,5.318,3.96,7.337c1.708,2.018,3.765,3.571,6.172,4.658c2.407,1.086,5.111,1.63,8.113,1.63
			c3.001,0,5.706-0.543,8.114-1.63c2.407-1.087,4.464-2.64,6.172-4.658c1.708-2.019,3.028-4.464,3.96-7.337
			C426.379,56.353,426.845,53.105,426.845,49.482z"/>
		<path fill="#FFFFFF" d="M452.697,73.005c4.192,0,7.454-0.764,9.783-2.295s3.493-4.007,3.493-7.431
			c0-1.972-0.376-3.619-1.126-4.941c-0.75-1.322-1.747-2.438-2.989-3.346c-1.242-0.907-2.666-1.683-4.27-2.326
			c-1.604-0.643-3.287-1.324-5.046-2.045c-2.226-0.874-4.219-1.774-5.977-2.701c-1.76-0.925-3.261-1.971-4.503-3.136
			c-1.243-1.164-2.188-2.496-2.834-3.998c-0.648-1.5-0.971-3.26-0.971-5.279c0-4.606,1.526-8.1,4.581-10.481
			c3.053-2.38,7.298-3.572,12.733-3.572c1.448,0,2.872,0.105,4.269,0.311c1.398,0.207,2.704,0.478,3.921,0.814
			c1.215,0.338,2.329,0.712,3.338,1.126c1.01,0.415,1.85,0.855,2.523,1.32l-1.863,4.425c-1.502-1.034-3.326-1.863-5.473-2.484
			c-2.148-0.621-4.464-0.932-6.949-0.932c-1.707,0-3.274,0.169-4.696,0.505c-1.424,0.338-2.653,0.881-3.688,1.631
			c-1.036,0.75-1.851,1.695-2.446,2.834c-0.595,1.139-0.893,2.511-0.893,4.115c0,1.657,0.31,3.054,0.932,4.192
			c0.621,1.139,1.487,2.124,2.6,2.951c1.113,0.828,2.419,1.579,3.921,2.251c1.5,0.673,3.131,1.372,4.891,2.096
			c2.122,0.88,4.127,1.76,6.017,2.639c1.889,0.881,3.532,1.915,4.93,3.105c1.397,1.191,2.51,2.639,3.338,4.348
			c0.827,1.708,1.243,3.804,1.243,6.289c0,4.865-1.696,8.515-5.085,10.947c-3.391,2.433-7.984,3.649-13.781,3.649
			c-2.071,0-3.96-0.13-5.667-0.389c-1.708-0.259-3.236-0.582-4.58-0.971c-1.347-0.388-2.484-0.788-3.416-1.203
			c-0.931-0.414-1.657-0.776-2.174-1.086l1.708-4.58c0.517,0.31,1.215,0.673,2.096,1.086c0.879,0.415,1.914,0.815,3.105,1.203
			c1.191,0.389,2.535,0.712,4.037,0.971C449.23,72.877,450.885,73.005,452.697,73.005z"/>
	</g>
</g>
</svg>
