<?xml version="1.0" encoding="utf-8"?>
<!-- Generator: Adobe Illustrator 17.0.0, SVG Export Plug-In . SVG Version: 6.00 Build 0)  -->
<!DOCTYPE svg PUBLIC "-//W3C//DTD SVG 1.1//EN" "http://www.w3.org/Graphics/SVG/1.1/DTD/svg11.dtd">
<svg version="1.1" id="Layer_1" xmlns="http://www.w3.org/2000/svg" xmlns:xlink="http://www.w3.org/1999/xlink" x="0px" y="0px"
	 width="689.574px" height="416.179px" viewBox="1210.334 0 689.574 416.179" enable-background="new 1210.334 0 689.574 416.179"
	 xml:space="preserve">
<g>
	<g id="Layer_2_2_">
		<g>
			<g>
				<path fill="#6CB5DD" d="M1557.155,81.369c9.495,0.488,18.09,4.366,24.605,10.448c0.559,0.521,1.097,1.064,1.624,1.617
					c1.714,1.653,3.249,3.489,4.564,5.486l0.004-0.003l0.103,0.169c0.354,0.545,0.692,1.101,1.013,1.668l86.422,126.701V0l0,0
					L1557.155,81.369z"/>
				<path fill="#65A6CA" d="M1675.49,227.454l-86.422-126.701c-0.321-0.567-0.659-1.123-1.013-1.668l-0.103-0.169l-0.004,0.003
					c-1.315-1.997-2.85-3.833-4.564-5.486c6.682,7.008,10.795,16.488,10.795,26.935c0,0.628-0.018,1.251-0.047,1.872
					c-0.003,0.054-0.009,0.108-0.011,0.163l81.369,118.334l0,0l0,0V227.454L1675.49,227.454z"/>
				<path fill="#2F7AA2" d="M1553.086,159.369c-9.495-0.488-18.089-4.366-24.605-10.448c-0.559-0.521-1.097-1.064-1.624-1.617
					c-1.714-1.653-3.249-3.49-4.564-5.486l-0.004,0.003l-0.103-0.169c-0.354-0.545-0.692-1.101-1.013-1.668l-86.421-126.7v227.454
					l0,0L1553.086,159.369z"/>
				<path fill="#2E7195" d="M1522.187,141.653l0.103,0.169l0.004-0.003c1.315,1.997,2.85,3.833,4.564,5.486
					c-6.683-7.008-10.795-16.488-10.795-26.936c0-0.628,0.018-1.251,0.047-1.872l0,0c0.003-0.054,0.009-0.108,0.011-0.162
					L1434.752,0l0,0l0,0v13.284l0,0l86.422,126.701C1521.496,140.552,1521.833,141.108,1522.187,141.653z"/>
				<path fill="#4F94C1" d="M1516.121,118.334c0.488-9.495,4.366-18.089,10.447-24.605c0.521-0.559,1.064-1.097,1.616-1.624
					c1.653-1.714,3.49-3.249,5.487-4.564l-0.003-0.004l0.169-0.103c0.545-0.354,1.101-0.692,1.668-1.013L1662.206,0h-227.454l0,0
					L1516.121,118.334z"/>
				<path fill="#4B88B1" d="M1533.837,87.435l-0.169,0.103l0.003,0.004c-1.997,1.315-3.834,2.85-5.487,4.564
					c7.008-6.683,16.488-10.796,26.936-10.796c0.628,0,1.251,0.018,1.872,0.047c0.054,0.003,0.108,0.009,0.162,0.011L1675.489,0l0,0
					h-13.284l-126.7,86.422C1534.938,86.744,1534.382,87.081,1533.837,87.435z"/>
				<path fill="#A3C8E9" d="M1594.121,122.403c-0.488,9.495-4.366,18.089-10.448,24.605c-0.521,0.558-1.063,1.097-1.616,1.624
					c-1.653,1.714-3.49,3.249-5.487,4.564l0.003,0.004l-0.169,0.103c-0.545,0.354-1.101,0.692-1.668,1.013l-126.7,86.422h227.454
					l0,0L1594.121,122.403z"/>
				<path fill="#96B7D5" d="M1576.405,153.302l0.169-0.103l-0.003-0.004c1.997-1.315,3.834-2.85,5.487-4.564
					c-7.008,6.683-16.488,10.796-26.936,10.796c-0.628,0-1.251-0.018-1.872-0.047l0,0c-0.054-0.003-0.108-0.009-0.162-0.011
					l-118.336,81.369l0,0h13.284l126.701-86.422C1575.304,153.994,1575.86,153.656,1576.405,153.302z"/>
			</g>
		</g>
	</g>
	<g>
		<path fill="#6D6E71" d="M1262.898,358.716h36.334v51.979c-5.654,1.804-11.405,3.168-17.253,4.094
			c-5.849,0.925-12.624,1.389-20.324,1.389c-16.182,0-28.78-4.813-37.796-14.439c-9.017-9.625-13.525-23.113-13.525-40.464
			c0-11.113,2.23-20.847,6.689-29.207c4.459-8.358,10.88-14.743,19.264-19.154c8.382-4.41,18.204-6.616,29.462-6.616
			c11.405,0,22.029,2.096,31.875,6.287l-4.825,10.966c-9.65-4.094-18.935-6.141-27.854-6.141c-13.013,0-23.175,3.875-30.486,11.624
			c-7.311,7.749-10.966,18.496-10.966,32.241c0,14.427,3.521,25.368,10.564,32.825c7.042,7.457,17.387,11.185,31.034,11.185
			c7.408,0,14.645-0.853,21.713-2.559v-32.898h-23.906V358.716z"/>
		<path fill="#6D6E71" d="M1368.596,414.717l-2.413-11.405h-0.585c-3.997,5.021-7.982,8.42-11.953,10.198
			c-3.972,1.778-8.931,2.669-14.877,2.669c-7.945,0-14.171-2.047-18.679-6.141c-4.509-4.094-6.762-9.918-6.762-17.473
			c0-16.18,12.94-24.661,38.82-25.441l13.598-0.439v-4.971c0-6.288-1.353-10.93-4.057-13.927c-2.706-2.997-7.031-4.496-12.977-4.496
			c-6.678,0-14.232,2.047-22.663,6.141l-3.728-9.285c3.948-2.144,8.273-3.825,12.976-5.044c4.702-1.218,9.418-1.828,14.146-1.828
			c9.552,0,16.632,2.12,21.237,6.36c4.607,4.24,6.909,11.039,6.909,20.397v54.684H1368.596z M1341.181,406.163
			c7.554,0,13.488-2.071,17.801-6.214c4.314-4.142,6.47-9.943,6.47-17.399v-7.238l-12.136,0.512
			c-9.65,0.342-16.608,1.84-20.872,4.496c-4.265,2.657-6.397,6.787-6.397,12.392c0,4.386,1.328,7.725,3.984,10.016
			C1332.688,405.018,1336.404,406.163,1341.181,406.163z"/>
		<path fill="#6D6E71" d="M1410.983,414.717h-12.136V300.962h12.136V414.717z"/>
		<path fill="#6D6E71" d="M1445.11,414.717h-12.136V300.962h12.136V414.717z"/>
		<path fill="#6D6E71" d="M1466.077,312.878c0-2.778,0.682-4.812,2.047-6.104c1.364-1.291,3.071-1.937,5.118-1.937
			c1.948,0,3.63,0.658,5.044,1.974c1.413,1.316,2.12,3.339,2.12,6.068c0,2.73-0.707,4.765-2.12,6.104
			c-1.414,1.341-3.096,2.01-5.044,2.01c-2.047,0-3.754-0.669-5.118-2.01C1466.759,317.643,1466.077,315.608,1466.077,312.878z
			 M1479.236,414.717h-12.136v-80.126h12.136V414.717z"/>
		<path fill="#6D6E71" d="M1512.631,334.591v51.979c0,6.531,1.486,11.405,4.46,14.621c2.972,3.217,7.627,4.825,13.963,4.825
			c8.382,0,14.511-2.29,18.387-6.872c3.874-4.581,5.812-12.063,5.812-22.444v-42.11h12.136v80.126h-10.016l-1.755-10.747h-0.658
			c-2.486,3.948-5.934,6.97-10.344,9.065c-4.412,2.095-9.444,3.144-15.097,3.144c-9.749,0-17.046-2.315-21.895-6.945
			c-4.851-4.63-7.275-12.038-7.275-22.225v-52.418H1512.631z"/>
		<path fill="#6D6E71" d="M1691.509,414.717v-52.125c0-6.385-1.365-11.173-4.094-14.366c-2.73-3.192-6.971-4.788-12.721-4.788
			c-7.555,0-13.135,2.169-16.741,6.507c-3.608,4.338-5.41,11.016-5.41,20.032v44.741h-12.136v-52.125
			c0-6.385-1.365-11.173-4.094-14.366c-2.73-3.192-6.995-4.788-12.794-4.788c-7.603,0-13.172,2.279-16.705,6.835
			c-3.534,4.558-5.3,12.027-5.3,22.408v42.036h-12.136v-80.126h9.869l1.974,10.966h0.585c2.29-3.898,5.52-6.945,9.686-9.138
			c4.168-2.193,8.834-3.29,14-3.29c12.525,0,20.713,4.533,24.564,13.598h0.585c2.387-4.191,5.849-7.505,10.381-9.943
			c4.533-2.436,9.698-3.655,15.499-3.655c9.065,0,15.852,2.328,20.36,6.982c4.508,4.655,6.763,12.099,6.763,22.335v52.271H1691.509z
			"/>
		<path fill="#6D6E71" d="M1819.505,361.129c0,17.107-4.326,30.559-12.977,40.355s-20.678,14.694-36.078,14.694
			c-15.744,0-27.89-4.813-36.444-14.439c-8.553-9.625-12.83-23.211-12.83-40.757c0-17.4,4.288-30.888,12.867-40.465
			c8.577-9.577,20.762-14.366,36.553-14.366c15.352,0,27.342,4.874,35.969,14.621
			C1815.192,330.522,1819.505,343.974,1819.505,361.129z M1734.335,361.129c0,14.475,3.082,25.454,9.248,32.934
			c6.165,7.482,15.12,11.222,26.866,11.222c11.843,0,20.786-3.728,26.83-11.185c6.042-7.457,9.065-18.447,9.065-32.971
			c0-14.377-3.01-25.283-9.029-32.716c-6.019-7.432-14.926-11.149-26.72-11.149c-11.843,0-20.848,3.741-27.013,11.222
			C1737.417,335.969,1734.335,346.849,1734.335,361.129z"/>
		<path fill="#6D6E71" d="M1899.909,386.278c0,9.407-3.412,16.742-10.235,22.005c-6.824,5.264-16.084,7.896-27.781,7.896
			c-12.673,0-22.42-1.632-29.243-4.898v-11.99c4.386,1.852,9.162,3.314,14.329,4.386c5.165,1.073,10.283,1.608,15.352,1.608
			c8.285,0,14.523-1.572,18.715-4.716c4.191-3.144,6.287-7.517,6.287-13.122c0-3.704-0.743-6.737-2.229-9.102
			c-1.488-2.363-3.973-4.544-7.457-6.543c-3.485-1.998-8.786-4.264-15.901-6.799c-9.943-3.558-17.046-7.774-21.311-12.648
			c-4.265-4.873-6.396-11.233-6.396-19.081c0-8.236,3.094-14.791,9.285-19.666c6.189-4.873,14.377-7.311,24.564-7.311
			c10.624,0,20.397,1.95,29.316,5.849l-3.875,10.82c-8.822-3.703-17.399-5.556-25.734-5.556c-6.58,0-11.723,1.414-15.426,4.24
			c-3.705,2.827-5.556,6.751-5.556,11.77c0,3.705,0.682,6.739,2.047,9.102c1.364,2.364,3.667,4.533,6.909,6.507
			c3.24,1.974,8.199,4.156,14.877,6.543c11.209,3.997,18.922,8.286,23.139,12.867C1897.8,373.022,1899.909,378.967,1899.909,386.278
			z"/>
	</g>
</g>
</svg>
