<?xml version="1.0" encoding="utf-8"?>
<!-- Generator: Adobe Illustrator 17.0.0, SVG Export Plug-In . SVG Version: 6.00 Build 0)  -->
<!DOCTYPE svg PUBLIC "-//W3C//DTD SVG 1.1//EN" "http://www.w3.org/Graphics/SVG/1.1/DTD/svg11.dtd">
<svg version="1.1" id="Layer_1" xmlns="http://www.w3.org/2000/svg" xmlns:xlink="http://www.w3.org/1999/xlink" x="0px" y="0px"
	 width="470.937px" height="99.946px" viewBox="0 0 470.937 99.946" enable-background="new 0 0 470.937 99.946"
	 xml:space="preserve">
<g>
	<g>
		<path fill="#2F7AA2" d="M154.957,31.241c-5.539,0-9.77,1.721-12.693,5.163c-2.925,3.442-4.387,8.216-4.387,14.322
			c0,2.9,0.35,5.552,1.048,7.958c0.699,2.407,1.734,4.464,3.106,6.173c1.37,1.707,3.079,3.041,5.124,3.998
			c2.044,0.959,4.437,1.436,7.182,1.436c1.708,0,3.183-0.065,4.425-0.194c1.242-0.128,2.225-0.297,2.95-0.505V50.26h9.783v25.854
			c-1.347,0.517-3.624,1.086-6.833,1.707s-6.91,0.931-11.102,0.931c-3.881,0-7.427-0.621-10.635-1.863
			c-3.21-1.242-5.939-3.053-8.19-5.434c-2.251-2.381-3.999-5.306-5.241-8.774c-1.243-3.466-1.863-7.454-1.863-11.957
			s0.686-8.487,2.057-11.955c1.371-3.468,3.248-6.405,5.629-8.811c2.38-2.407,5.175-4.232,8.385-5.473
			c3.208-1.243,6.625-1.864,10.248-1.864c2.484,0,4.696,0.169,6.637,0.505c1.941,0.338,3.61,0.713,5.008,1.126
			c1.397,0.414,2.548,0.855,3.455,1.32c0.905,0.466,1.539,0.803,1.902,1.01L168,34.578c-1.553-0.931-3.481-1.721-5.784-2.367
			C159.913,31.565,157.493,31.241,154.957,31.241z"/>
		<path fill="#2F7AA2" d="M192.767,36.054c3.105,0,5.718,0.387,7.841,1.163c2.122,0.778,3.816,1.864,5.085,3.261
			c1.267,1.399,2.174,3.094,2.717,5.086c0.543,1.992,0.815,4.179,0.815,6.56v24.611c-1.45,0.31-3.636,0.686-6.56,1.126
			c-2.925,0.438-6.225,0.66-9.899,0.66c-2.434,0-4.658-0.234-6.677-0.699s-3.74-1.216-5.163-2.251
			c-1.424-1.035-2.536-2.379-3.339-4.037c-0.803-1.656-1.203-3.7-1.203-6.133c0-2.328,0.453-4.295,1.359-5.9
			c0.906-1.603,2.135-2.912,3.688-3.921c1.552-1.008,3.35-1.733,5.396-2.173c2.043-0.44,4.179-0.66,6.405-0.66
			c1.034,0,2.122,0.065,3.26,0.194c1.139,0.13,2.355,0.35,3.649,0.66v-1.554c0-1.086-0.13-2.122-0.388-3.104
			c-0.26-0.982-0.712-1.851-1.359-2.601c-0.648-0.75-1.502-1.332-2.562-1.747c-1.062-0.414-2.395-0.623-3.999-0.623
			c-2.174,0-4.167,0.157-5.977,0.467c-1.812,0.31-3.288,0.672-4.425,1.086l-1.165-7.609c1.191-0.413,2.923-0.827,5.201-1.242
			C187.745,36.26,190.178,36.054,192.767,36.054z M193.543,71.067c2.898,0,5.097-0.155,6.599-0.466V60.199
			c-0.518-0.155-1.269-0.31-2.251-0.467c-0.984-0.155-2.071-0.232-3.26-0.232c-1.036,0-2.084,0.077-3.144,0.232
			c-1.062,0.157-2.019,0.442-2.873,0.855c-0.854,0.414-1.54,0.998-2.057,1.747c-0.518,0.752-0.776,1.697-0.776,2.835
			c0,2.226,0.698,3.764,2.096,4.619C189.273,70.641,191.162,71.067,193.543,71.067z"/>
		<path fill="#2F7AA2" d="M231.739,78.442c-2.795-0.051-5.112-0.362-6.949-0.931c-1.838-0.57-3.3-1.385-4.386-2.446
			c-1.087-1.059-1.851-2.379-2.291-3.959c-0.44-1.578-0.659-3.377-0.659-5.397V18.974l9.394-1.552v46.502
			c0,1.139,0.09,2.096,0.271,2.874c0.181,0.776,0.505,1.436,0.971,1.979c0.466,0.544,1.099,0.959,1.903,1.243
			c0.802,0.285,1.824,0.503,3.067,0.658L231.739,78.442z"/>
		<path fill="#2F7AA2" d="M251.691,78.442c-2.795-0.051-5.112-0.362-6.949-0.931c-1.838-0.57-3.3-1.385-4.386-2.446
			c-1.087-1.059-1.851-2.379-2.291-3.959c-0.44-1.578-0.659-3.377-0.659-5.397V18.974l9.394-1.552v46.502
			c0,1.139,0.09,2.096,0.271,2.874c0.181,0.776,0.505,1.436,0.971,1.979c0.466,0.544,1.099,0.959,1.903,1.243
			c0.802,0.285,1.824,0.503,3.067,0.658L251.691,78.442z"/>
		<path fill="#2F7AA2" d="M267.994,25.184c0,1.76-0.57,3.159-1.707,4.192c-1.139,1.037-2.485,1.554-4.037,1.554
			c-1.605,0-2.977-0.517-4.115-1.554c-1.139-1.034-1.708-2.432-1.708-4.192c0-1.811,0.569-3.234,1.708-4.269
			c1.138-1.035,2.51-1.554,4.115-1.554c1.552,0,2.898,0.519,4.037,1.554C267.424,21.95,267.994,23.372,267.994,25.184z
			 M266.985,77.666h-9.394V37.062h9.394V77.666z"/>
		<path fill="#2F7AA2" d="M309.141,76.425c-1.813,0.466-4.167,0.945-7.066,1.436c-2.899,0.491-6.082,0.737-9.549,0.737
			c-3.26,0-5.991-0.466-8.19-1.397c-2.2-0.931-3.96-2.224-5.279-3.882c-1.32-1.656-2.265-3.635-2.834-5.939
			c-0.571-2.303-0.855-4.825-0.855-7.57V37.062h9.395v21.273c0,4.348,0.633,7.454,1.902,9.316c1.267,1.864,3.48,2.796,6.637,2.796
			c1.139,0,2.342-0.051,3.611-0.155c1.267-0.104,2.212-0.234,2.833-0.389v-32.84h9.395V76.425z"/>
		<path fill="#2F7AA2" d="M341.126,56.317c0-4.244-0.531-7.31-1.591-9.2c-1.062-1.888-3.041-2.833-5.939-2.833
			c-1.036,0-2.174,0.077-3.416,0.232c-1.242,0.155-2.174,0.285-2.795,0.389v32.762h-9.394V38.382
			c1.811-0.517,4.179-1.008,7.103-1.475c2.923-0.466,6.017-0.698,9.278-0.698c2.795,0,5.085,0.362,6.871,1.086
			c1.785,0.725,3.272,1.682,4.464,2.872c0.569-0.413,1.293-0.855,2.174-1.32c0.879-0.466,1.863-0.892,2.95-1.281
			c1.087-0.387,2.239-0.71,3.455-0.971c1.216-0.258,2.446-0.387,3.688-0.387c3.156,0,5.757,0.454,7.802,1.358
			c2.043,0.907,3.648,2.175,4.813,3.805c1.164,1.631,1.966,3.597,2.407,5.9c0.439,2.304,0.66,4.827,0.66,7.57v22.825h-9.395V56.317
			c0-4.244-0.518-7.31-1.552-9.2c-1.036-1.888-3.028-2.833-5.978-2.833c-1.502,0-2.924,0.246-4.27,0.737
			c-1.347,0.493-2.355,0.971-3.027,1.436c0.414,1.295,0.698,2.666,0.854,4.114c0.155,1.45,0.233,3.004,0.233,4.658v22.438h-9.394
			V56.317z"/>
		<path fill="#2F7AA2" d="M431.338,50.726c0,4.609-0.674,8.67-2.019,12.19c-1.347,3.52-3.171,6.456-5.473,8.811
			c-2.303,2.355-4.982,4.128-8.035,5.318c-3.055,1.191-6.289,1.786-9.705,1.786c-3.416,0-6.651-0.595-9.704-1.786
			c-3.055-1.191-5.733-2.963-8.035-5.318c-2.303-2.355-4.128-5.291-5.473-8.811c-1.347-3.52-2.019-7.582-2.019-12.19
			c0-4.605,0.672-8.656,2.019-12.149c1.346-3.493,3.17-6.417,5.473-8.772c2.303-2.355,4.98-4.128,8.035-5.318
			c3.053-1.191,6.289-1.786,9.704-1.786c3.416,0,6.65,0.595,9.705,1.786c3.053,1.191,5.732,2.963,8.035,5.318
			c2.303,2.355,4.127,5.279,5.473,8.772C430.665,42.07,431.338,46.12,431.338,50.726z M425.748,50.726
			c0-3.621-0.466-6.87-1.397-9.743c-0.932-2.872-2.251-5.318-3.96-7.336c-1.708-2.019-3.765-3.558-6.172-4.621
			c-2.408-1.059-5.113-1.591-8.114-1.591c-3.002,0-5.706,0.532-8.113,1.591c-2.407,1.063-4.464,2.601-6.172,4.621
			c-1.708,2.018-3.028,4.464-3.96,7.336c-0.931,2.872-1.397,6.122-1.397,9.743c0,3.624,0.466,6.872,1.397,9.744
			c0.932,2.872,2.251,5.318,3.96,7.336c1.708,2.019,3.765,3.572,6.172,4.658c2.407,1.088,5.111,1.631,8.113,1.631
			c3.001,0,5.706-0.542,8.114-1.631c2.407-1.086,4.464-2.639,6.172-4.658c1.708-2.018,3.027-4.464,3.96-7.336
			C425.282,57.598,425.748,54.35,425.748,50.726z"/>
		<path fill="#2F7AA2" d="M451.6,74.25c4.192,0,7.454-0.764,9.783-2.294c2.329-1.532,3.493-4.008,3.493-7.431
			c0-1.972-0.376-3.619-1.126-4.941c-0.75-1.322-1.747-2.439-2.989-3.345c-1.242-0.907-2.666-1.685-4.27-2.328
			c-1.604-0.643-3.287-1.324-5.046-2.045c-2.226-0.873-4.219-1.772-5.977-2.7c-1.76-0.924-3.261-1.972-4.503-3.135
			c-1.243-1.165-2.187-2.497-2.834-3.998c-0.648-1.501-0.971-3.261-0.971-5.281c0-4.605,1.526-8.098,4.58-10.479
			c3.053-2.381,7.298-3.572,12.733-3.572c1.448,0,2.872,0.104,4.269,0.31c1.398,0.206,2.704,0.479,3.921,0.815
			c1.215,0.336,2.329,0.711,3.338,1.126c1.01,0.414,1.85,0.853,2.523,1.32l-1.863,4.424c-1.502-1.035-3.326-1.863-5.473-2.485
			c-2.148-0.621-4.464-0.931-6.949-0.931c-1.707,0-3.274,0.169-4.696,0.505c-1.424,0.338-2.653,0.88-3.688,1.631
			c-1.036,0.75-1.851,1.695-2.446,2.833c-0.595,1.139-0.893,2.512-0.893,4.116c0,1.656,0.31,3.055,0.932,4.192
			c0.621,1.139,1.487,2.122,2.6,2.949c1.113,0.829,2.419,1.579,3.921,2.251c1.5,0.674,3.131,1.373,4.891,2.096
			c2.122,0.882,4.127,1.76,6.017,2.64c1.889,0.88,3.532,1.915,4.93,3.106c1.397,1.191,2.51,2.639,3.338,4.348
			c0.827,1.707,1.243,3.804,1.243,6.289c0,4.864-1.696,8.513-5.085,10.945c-3.391,2.434-7.984,3.65-13.781,3.65
			c-2.071,0-3.96-0.13-5.667-0.389c-1.708-0.259-3.236-0.582-4.581-0.971c-1.347-0.387-2.484-0.788-3.416-1.202
			c-0.931-0.414-1.657-0.776-2.174-1.088l1.708-4.58c0.517,0.31,1.215,0.674,2.096,1.086c0.879,0.414,1.914,0.815,3.105,1.204
			c1.191,0.387,2.535,0.711,4.037,0.971C448.133,74.122,449.788,74.25,451.6,74.25z"/>
	</g>
	<g>
		<g>
			<g>
				<path fill="#2F7AA2" d="M52.553,32.644c3.826,0.197,7.29,1.759,9.916,4.211c0.225,0.21,0.442,0.429,0.654,0.651
					c0.691,0.666,1.309,1.406,1.839,2.211l0.001-0.001l0.041,0.068c0.143,0.22,0.279,0.444,0.408,0.672l34.829,51.061V-0.148l0,0
					L52.553,32.644z"/>
			</g>
			<g>
				<path fill="#2F7AA2" d="M47.689,67.302c-3.826-0.197-7.29-1.759-9.916-4.21c-0.225-0.21-0.442-0.429-0.655-0.651
					c-0.691-0.666-1.309-1.406-1.839-2.211l-0.001,0.001l-0.041-0.068c-0.143-0.22-0.279-0.444-0.408-0.672L0,8.429v91.665l0,0
					L47.689,67.302z"/>
			</g>
			<g>
				<path fill="#2F7AA2" d="M32.792,47.541c0.197-3.826,1.759-7.29,4.21-9.916c0.21-0.225,0.429-0.442,0.651-0.654
					c0.666-0.691,1.406-1.31,2.211-1.839l-0.001-0.001l0.068-0.041c0.22-0.143,0.444-0.279,0.672-0.408L91.665-0.148H0l0,0
					L32.792,47.541z"/>
			</g>
			<g>
				<path fill="#2F7AA2" d="M67.45,52.405c-0.197,3.826-1.76,7.29-4.21,9.916c-0.21,0.225-0.429,0.442-0.651,0.654
					c-0.666,0.691-1.406,1.309-2.211,1.839l0.001,0.001l-0.068,0.041c-0.22,0.143-0.444,0.279-0.672,0.408L8.577,100.094h91.665l0,0
					L67.45,52.405z"/>
			</g>
		</g>
	</g>
</g>
</svg>
