<?xml version="1.0" encoding="utf-8"?>
<!-- Generator: Adobe Illustrator 17.0.0, SVG Export Plug-In . SVG Version: 6.00 Build 0)  -->
<!DOCTYPE svg PUBLIC "-//W3C//DTD SVG 1.1//EN" "http://www.w3.org/Graphics/SVG/1.1/DTD/svg11.dtd">
<svg version="1.1" id="Layer_1" xmlns="http://www.w3.org/2000/svg" xmlns:xlink="http://www.w3.org/1999/xlink" x="0px" y="0px"
	 width="1125.679px" height="240.738px" viewBox="0 0 1125.679 240.738" enable-background="new 0 0 1125.679 240.738"
	 xml:space="preserve">
<g id="Layer_1_1_" display="none">
	<rect x="78.831" y="54.609" display="inline" fill="#00A651" width="362.378" height="362.378"/>
	<circle display="inline" fill="#FFFFFF" cx="260.02" cy="235.798" r="60.811"/>
	<circle display="inline" fill="#FFFFFF" cx="260.02" cy="235.798" r="60.811"/>
	<circle display="inline" fill="#FFFFFF" cx="260.02" cy="235.798" r="60.811"/>
</g>
<g id="Layer_2">
	<g>
		<g>
			<path fill="#6CB5DD" d="M122.403,81.369c9.495,0.488,18.09,4.366,24.605,10.448c0.559,0.521,1.097,1.064,1.624,1.617
				c1.714,1.653,3.249,3.489,4.564,5.486l0.004-0.003l0.103,0.169c0.354,0.545,0.692,1.101,1.013,1.668l86.422,126.701V0l0,0
				L122.403,81.369z"/>
			<path fill="#65A6CA" d="M240.738,227.454l-86.422-126.701c-0.321-0.567-0.659-1.123-1.013-1.668l-0.103-0.169l-0.004,0.003
				c-1.315-1.997-2.85-3.833-4.564-5.486c6.682,7.008,10.795,16.488,10.795,26.935c0,0.628-0.018,1.251-0.047,1.872
				c-0.003,0.054-0.009,0.108-0.011,0.163l81.369,118.334l0,0l0,0L240.738,227.454L240.738,227.454z"/>
			<path fill="#2F7AA2" d="M118.334,159.369c-9.495-0.488-18.089-4.366-24.605-10.448c-0.559-0.521-1.097-1.064-1.624-1.617
				c-1.714-1.653-3.249-3.49-4.564-5.486l-0.004,0.003l-0.103-0.169c-0.354-0.545-0.692-1.101-1.013-1.668L0,13.284v227.454l0,0
				L118.334,159.369z"/>
			<path fill="#2E7195" d="M87.435,141.653l0.103,0.169l0.004-0.003c1.315,1.997,2.85,3.833,4.564,5.486
				c-6.683-7.008-10.795-16.488-10.795-26.936c0-0.628,0.018-1.251,0.047-1.872l0,0c0.003-0.054,0.009-0.108,0.011-0.162L0,0l0,0
				l0,0v13.284l0,0l86.422,126.701C86.744,140.552,87.081,141.108,87.435,141.653z"/>
			<path fill="#4F94C1" d="M81.369,118.334c0.488-9.495,4.366-18.089,10.447-24.605c0.521-0.559,1.064-1.097,1.616-1.624
				c1.653-1.714,3.49-3.249,5.487-4.564l-0.003-0.004l0.169-0.103c0.545-0.354,1.101-0.692,1.668-1.013L227.454,0H0l0,0
				L81.369,118.334z"/>
			<path fill="#4B88B1" d="M99.085,87.435l-0.169,0.103l0.003,0.004c-1.997,1.315-3.834,2.85-5.487,4.564
				c7.008-6.683,16.488-10.796,26.936-10.796c0.628,0,1.251,0.018,1.872,0.047c0.054,0.003,0.108,0.009,0.162,0.011L240.737,0l0,0
				h-13.284l-126.7,86.422C100.186,86.744,99.63,87.081,99.085,87.435z"/>
			<path fill="#A3C8E9" d="M159.369,122.403c-0.488,9.495-4.366,18.089-10.448,24.605c-0.521,0.558-1.063,1.097-1.616,1.624
				c-1.653,1.714-3.49,3.249-5.487,4.564l0.003,0.004l-0.169,0.103c-0.545,0.354-1.101,0.692-1.668,1.013l-126.7,86.422h227.454l0,0
				L159.369,122.403z"/>
			<path fill="#96B7D5" d="M141.653,153.302l0.169-0.103l-0.003-0.004c1.997-1.315,3.834-2.85,5.487-4.564
				c-7.008,6.683-16.488,10.796-26.936,10.796c-0.628,0-1.251-0.018-1.872-0.047l0,0c-0.054-0.003-0.108-0.009-0.162-0.011
				L0,240.738l0,0h13.284l126.701-86.422C140.552,153.994,141.108,153.656,141.653,153.302z"/>
		</g>
	</g>
</g>
<g>
	<path fill="#6D6E71" d="M368.362,120.646h43.196v61.796c-6.722,2.145-13.559,3.767-20.512,4.867
		c-6.953,1.1-15.008,1.651-24.162,1.651c-19.238,0-34.216-5.722-44.935-17.166c-10.72-11.442-16.079-27.479-16.079-48.106
		c0-13.211,2.651-24.785,7.953-34.723c5.302-9.937,12.935-17.527,22.902-22.771c9.965-5.243,21.642-7.866,35.026-7.866
		c13.559,0,26.189,2.492,37.895,7.475l-5.736,13.037c-11.473-4.867-22.511-7.301-33.114-7.301c-15.471,0-27.552,4.606-36.243,13.819
		s-13.037,21.989-13.037,38.33c0,17.151,4.186,30.159,12.559,39.024c8.372,8.865,20.67,13.298,36.895,13.298
		c8.807,0,17.411-1.014,25.813-3.042v-39.111h-28.421V120.646z"/>
	<path fill="#6D6E71" d="M494.022,187.223l-2.868-13.559h-0.695c-4.752,5.969-9.489,10.01-14.211,12.124
		c-4.723,2.114-10.618,3.173-17.687,3.173c-9.445,0-16.848-2.434-22.207-7.301c-5.36-4.867-8.04-11.791-8.04-20.772
		c0-19.236,15.384-29.318,46.151-30.246l16.166-0.521v-5.91c0-7.475-1.608-12.994-4.823-16.558
		c-3.217-3.563-8.359-5.345-15.428-5.345c-7.939,0-16.92,2.434-26.943,7.301l-4.433-11.038c4.693-2.549,9.835-4.548,15.427-5.997
		c5.59-1.448,11.197-2.173,16.818-2.173c11.355,0,19.773,2.521,25.248,7.562c5.477,5.041,8.214,13.124,8.214,24.25v65.012H494.022z
		 M461.429,177.054c8.98,0,16.035-2.462,21.163-7.388c5.129-4.925,7.692-11.82,7.692-20.686v-8.604l-14.428,0.608
		c-11.473,0.406-19.745,2.188-24.814,5.345c-5.071,3.159-7.605,8.069-7.605,14.732c0,5.215,1.578,9.185,4.737,11.907
		C451.332,175.692,455.75,177.054,461.429,177.054z"/>
	<path fill="#6D6E71" d="M544.414,187.223h-14.428V51.984h14.428V187.223z"/>
	<path fill="#6D6E71" d="M584.987,187.223h-14.428V51.984h14.428V187.223z"/>
	<path fill="#6D6E71" d="M609.913,66.151c0-3.303,0.811-5.721,2.434-7.257c1.621-1.535,3.65-2.303,6.084-2.303
		c2.316,0,4.315,0.782,5.997,2.347c1.68,1.564,2.521,3.97,2.521,7.214c0,3.246-0.841,5.665-2.521,7.257
		c-1.682,1.594-3.681,2.39-5.997,2.39c-2.434,0-4.463-0.796-6.084-2.39C610.724,71.815,609.913,69.396,609.913,66.151z
		 M625.558,187.223H611.13V91.964h14.428V187.223z"/>
	<path fill="#6D6E71" d="M665.26,91.964v61.796c0,7.765,1.767,13.559,5.302,17.383c3.533,3.824,9.067,5.736,16.601,5.736
		c9.965,0,17.252-2.723,21.859-8.17c4.605-5.446,6.909-14.341,6.909-26.683V91.964h14.428v95.258h-11.907l-2.086-12.776h-0.782
		c-2.955,4.693-7.055,8.286-12.298,10.777c-5.245,2.49-11.228,3.737-17.948,3.737c-11.59,0-20.266-2.752-26.03-8.257
		c-5.767-5.504-8.648-14.312-8.648-26.422V91.964H665.26z"/>
	<path fill="#6D6E71" d="M877.921,187.223v-61.97c0-7.59-1.623-13.283-4.867-17.079c-3.246-3.794-8.287-5.693-15.123-5.693
		c-8.982,0-15.616,2.579-19.903,7.735c-4.289,5.158-6.432,13.096-6.432,23.815v53.191h-14.428v-61.97
		c0-7.59-1.623-13.283-4.867-17.079c-3.246-3.794-8.315-5.693-15.21-5.693c-9.039,0-15.659,2.709-19.86,8.126
		c-4.201,5.418-6.301,14.298-6.301,26.64v49.976h-14.428V91.964h11.733l2.347,13.037h0.695c2.723-4.635,6.563-8.257,11.516-10.864
		c4.955-2.607,10.502-3.911,16.645-3.911c14.891,0,24.625,5.389,29.203,16.166h0.695c2.838-4.982,6.953-8.922,12.342-11.82
		c5.389-2.896,11.529-4.346,18.426-4.346c10.777,0,18.846,2.768,24.205,8.3c5.359,5.534,8.04,14.384,8.04,26.553v62.144H877.921z"/>
	<path fill="#6D6E71" d="M1030.09,123.514c0,20.338-5.143,36.33-15.428,47.977c-10.285,11.646-24.583,17.47-42.892,17.47
		c-18.717,0-33.157-5.722-43.327-17.166c-10.168-11.442-15.253-27.595-15.253-48.454c0-20.686,5.098-36.722,15.297-48.107
		c10.197-11.386,24.684-17.079,43.457-17.079c18.252,0,32.506,5.795,42.762,17.383C1024.962,87.127,1030.09,103.119,1030.09,123.514
		z M928.835,123.514c0,17.209,3.664,30.261,10.995,39.154c7.329,8.896,17.976,13.342,31.94,13.342
		c14.08,0,24.712-4.433,31.897-13.298c7.184-8.865,10.777-21.931,10.777-39.198c0-17.093-3.578-30.058-10.734-38.895
		c-7.156-8.835-17.745-13.254-31.767-13.254c-14.08,0-24.785,4.448-32.114,13.341C932.499,93.602,928.835,106.537,928.835,123.514z"
		/>
	<path fill="#6D6E71" d="M1125.679,153.413c0,11.184-4.057,19.903-12.168,26.161c-8.113,6.258-19.121,9.387-33.027,9.387
		c-15.066,0-26.654-1.94-34.766-5.823v-14.254c5.215,2.202,10.893,3.94,17.035,5.215c6.141,1.275,12.225,1.912,18.252,1.912
		c9.85,0,17.266-1.869,22.25-5.606c4.982-3.737,7.475-8.937,7.475-15.601c0-4.403-0.884-8.01-2.65-10.821
		c-1.769-2.81-4.724-5.402-8.865-7.778c-4.144-2.375-10.445-5.069-18.904-8.083c-11.82-4.229-20.266-9.242-25.336-15.037
		c-5.07-5.793-7.604-13.355-7.604-22.685c0-9.792,3.679-17.585,11.038-23.38c7.357-5.793,17.092-8.691,29.203-8.691
		c12.631,0,24.249,2.318,34.853,6.953l-4.606,12.863c-10.488-4.403-20.686-6.605-30.594-6.605c-7.822,0-13.937,1.681-18.339,5.041
		c-4.404,3.361-6.605,8.026-6.605,13.993c0,4.404,0.811,8.011,2.434,10.821c1.621,2.811,4.359,5.389,8.214,7.735
		c3.853,2.347,9.747,4.94,17.687,7.779c13.326,4.752,22.496,9.851,27.509,15.297
		C1123.172,137.653,1125.679,144.722,1125.679,153.413z"/>
</g>
</svg>
