<?xml version="1.0" encoding="UTF-8" standalone="no"?>
<!-- Generator: Adobe Illustrator 17.0.0, SVG Export Plug-In . SVG Version: 6.00 Build 0)  -->

<svg
   xmlns:dc="http://purl.org/dc/elements/1.1/"
   xmlns:cc="http://creativecommons.org/ns#"
   xmlns:rdf="http://www.w3.org/1999/02/22-rdf-syntax-ns#"
   xmlns:svg="http://www.w3.org/2000/svg"
   xmlns="http://www.w3.org/2000/svg"
   xmlns:sodipodi="http://sodipodi.sourceforge.net/DTD/sodipodi-0.dtd"
   xmlns:inkscape="http://www.inkscape.org/namespaces/inkscape"
   version="1.1"
   id="Layer_1"
   x="0px"
   y="0px"
   width="342.758"
   height="61.409"
   viewBox="0 0 342.75799 61.409001"
   enable-background="new 0 0 470.937 99.946"
   xml:space="preserve"
   sodipodi:docname="wordmark-gray.svg"
   inkscape:version="0.92.0 r"><metadata
     id="metadata147"><rdf:RDF><cc:Work
         rdf:about=""><dc:format>image/svg+xml</dc:format><dc:type
           rdf:resource="http://purl.org/dc/dcmitype/StillImage" /><dc:title></dc:title></cc:Work></rdf:RDF></metadata><defs
     id="defs145" /><sodipodi:namedview
     pagecolor="#ffffff"
     bordercolor="#666666"
     borderopacity="1"
     objecttolerance="10"
     gridtolerance="10"
     guidetolerance="10"
     inkscape:pageopacity="0"
     inkscape:pageshadow="2"
     inkscape:window-width="1920"
     inkscape:window-height="1039"
     id="namedview143"
     showgrid="false"
     fit-margin-top="0"
     fit-margin-left="0"
     fit-margin-right="0"
     fit-margin-bottom="0"
     inkscape:zoom="0.63278101"
     inkscape:cx="107.83751"
     inkscape:cy="29.006"
     inkscape:window-x="0"
     inkscape:window-y="0"
     inkscape:window-maximized="1"
     inkscape:current-layer="Layer_1" /><g
     id="g118"
     transform="translate(-127.631,-17.57)"><path
       style="fill:#6d6e71"
       inkscape:connector-curvature="0"
       id="path100"
       d="m 154.957,31.389 c -5.539,0 -9.77,1.721 -12.693,5.163 -2.925,3.442 -4.387,8.216 -4.387,14.322 0,2.9 0.35,5.552 1.048,7.958 0.699,2.407 1.734,4.464 3.106,6.173 1.37,1.707 3.079,3.041 5.124,3.998 2.044,0.959 4.437,1.436 7.182,1.436 1.708,0 3.183,-0.065 4.425,-0.194 1.242,-0.128 2.225,-0.297 2.95,-0.505 V 50.408 h 9.783 v 25.854 c -1.347,0.517 -3.624,1.086 -6.833,1.707 -3.209,0.621 -6.91,0.931 -11.102,0.931 -3.881,0 -7.427,-0.621 -10.635,-1.863 -3.21,-1.242 -5.939,-3.053 -8.19,-5.434 -2.251,-2.381 -3.999,-5.306 -5.241,-8.774 -1.243,-3.466 -1.863,-7.454 -1.863,-11.956 0,-4.502 0.686,-8.487 2.057,-11.955 1.371,-3.468 3.248,-6.405 5.629,-8.811 2.38,-2.407 5.175,-4.232 8.385,-5.473 3.208,-1.243 6.625,-1.864 10.248,-1.864 2.484,0 4.696,0.169 6.637,0.505 1.941,0.338 3.61,0.713 5.008,1.126 1.397,0.414 2.548,0.855 3.455,1.32 0.905,0.466 1.539,0.803 1.902,1.01 L 168,34.727 c -1.553,-0.931 -3.481,-1.721 -5.784,-2.367 -2.303,-0.647 -4.723,-0.971 -7.259,-0.971 z" /><path
       style="fill:#6d6e71"
       inkscape:connector-curvature="0"
       id="path102"
       d="m 192.767,36.202 c 3.105,0 5.718,0.387 7.841,1.163 2.122,0.778 3.816,1.864 5.085,3.261 1.267,1.399 2.174,3.094 2.717,5.086 0.543,1.992 0.815,4.179 0.815,6.56 v 24.611 c -1.45,0.31 -3.636,0.686 -6.56,1.126 -2.925,0.438 -6.225,0.66 -9.899,0.66 -2.434,0 -4.658,-0.234 -6.677,-0.699 -2.019,-0.466 -3.74,-1.216 -5.163,-2.251 -1.424,-1.035 -2.536,-2.379 -3.339,-4.037 -0.803,-1.656 -1.203,-3.7 -1.203,-6.133 0,-2.328 0.453,-4.295 1.359,-5.9 0.906,-1.603 2.135,-2.912 3.688,-3.921 1.552,-1.008 3.35,-1.733 5.396,-2.173 2.043,-0.44 4.179,-0.66 6.405,-0.66 1.034,0 2.122,0.065 3.26,0.194 1.139,0.13 2.355,0.35 3.649,0.66 v -1.554 c 0,-1.086 -0.13,-2.122 -0.388,-3.104 -0.26,-0.982 -0.712,-1.851 -1.359,-2.601 -0.648,-0.75 -1.502,-1.332 -2.562,-1.747 -1.062,-0.414 -2.395,-0.623 -3.999,-0.623 -2.174,0 -4.167,0.157 -5.977,0.467 -1.812,0.31 -3.288,0.672 -4.425,1.086 l -1.165,-7.609 c 1.191,-0.413 2.923,-0.827 5.201,-1.242 2.278,-0.414 4.711,-0.62 7.3,-0.62 z m 0.776,35.013 c 2.898,0 5.097,-0.155 6.599,-0.466 V 60.347 c -0.518,-0.155 -1.269,-0.31 -2.251,-0.467 -0.984,-0.155 -2.071,-0.232 -3.26,-0.232 -1.036,0 -2.084,0.077 -3.144,0.232 -1.062,0.157 -2.019,0.442 -2.873,0.855 -0.854,0.414 -1.54,0.998 -2.057,1.747 -0.518,0.752 -0.776,1.697 -0.776,2.835 0,2.226 0.698,3.764 2.096,4.619 1.396,0.853 3.285,1.279 5.666,1.279 z" /><path
       style="fill:#6d6e71"
       inkscape:connector-curvature="0"
       id="path104"
       d="m 231.739,78.59 c -2.795,-0.051 -5.112,-0.362 -6.949,-0.931 -1.838,-0.57 -3.3,-1.385 -4.386,-2.446 -1.087,-1.059 -1.851,-2.379 -2.291,-3.959 -0.44,-1.578 -0.659,-3.377 -0.659,-5.397 V 19.122 l 9.394,-1.552 v 46.502 c 0,1.139 0.09,2.096 0.271,2.874 0.181,0.776 0.505,1.436 0.971,1.979 0.466,0.544 1.099,0.959 1.903,1.243 0.802,0.285 1.824,0.503 3.067,0.658 z" /><path
       style="fill:#6d6e71"
       inkscape:connector-curvature="0"
       id="path106"
       d="m 251.691,78.59 c -2.795,-0.051 -5.112,-0.362 -6.949,-0.931 -1.838,-0.57 -3.3,-1.385 -4.386,-2.446 -1.087,-1.059 -1.851,-2.379 -2.291,-3.959 -0.44,-1.578 -0.659,-3.377 -0.659,-5.397 V 19.122 L 246.8,17.57 v 46.502 c 0,1.139 0.09,2.096 0.271,2.874 0.181,0.776 0.505,1.436 0.971,1.979 0.466,0.544 1.099,0.959 1.903,1.243 0.802,0.285 1.824,0.503 3.067,0.658 z" /><path
       style="fill:#6d6e71"
       inkscape:connector-curvature="0"
       id="path108"
       d="m 267.994,25.332 c 0,1.76 -0.57,3.159 -1.707,4.192 -1.139,1.037 -2.485,1.554 -4.037,1.554 -1.605,0 -2.977,-0.517 -4.115,-1.554 -1.139,-1.034 -1.708,-2.432 -1.708,-4.192 0,-1.811 0.569,-3.234 1.708,-4.269 1.138,-1.035 2.51,-1.554 4.115,-1.554 1.552,0 2.898,0.519 4.037,1.554 1.137,1.035 1.707,2.458 1.707,4.269 z m -1.009,52.482 h -9.394 V 37.21 h 9.394 z" /><path
       style="fill:#6d6e71"
       inkscape:connector-curvature="0"
       id="path110"
       d="m 309.141,76.573 c -1.813,0.466 -4.167,0.945 -7.066,1.436 -2.899,0.491 -6.082,0.737 -9.549,0.737 -3.26,0 -5.991,-0.466 -8.19,-1.397 -2.2,-0.931 -3.96,-2.224 -5.279,-3.882 -1.32,-1.656 -2.265,-3.635 -2.834,-5.939 -0.571,-2.303 -0.855,-4.825 -0.855,-7.57 V 37.21 h 9.395 v 21.273 c 0,4.348 0.633,7.454 1.902,9.316 1.267,1.864 3.48,2.796 6.637,2.796 1.139,0 2.342,-0.051 3.611,-0.155 1.267,-0.104 2.212,-0.234 2.833,-0.389 V 37.21 h 9.395 z" /><path
       style="fill:#6d6e71"
       inkscape:connector-curvature="0"
       id="path112"
       d="m 341.126,56.465 c 0,-4.244 -0.531,-7.31 -1.591,-9.2 -1.062,-1.888 -3.041,-2.833 -5.939,-2.833 -1.036,0 -2.174,0.077 -3.416,0.232 -1.242,0.155 -2.174,0.285 -2.795,0.389 v 32.762 h -9.394 V 38.53 c 1.811,-0.517 4.179,-1.008 7.103,-1.475 2.923,-0.466 6.017,-0.698 9.278,-0.698 2.795,0 5.085,0.362 6.871,1.086 1.785,0.725 3.272,1.682 4.464,2.872 0.569,-0.413 1.293,-0.855 2.174,-1.32 0.879,-0.466 1.863,-0.892 2.95,-1.281 1.087,-0.387 2.239,-0.71 3.455,-0.971 1.216,-0.258 2.446,-0.387 3.688,-0.387 3.156,0 5.757,0.454 7.802,1.358 2.043,0.907 3.648,2.175 4.813,3.805 1.164,1.631 1.966,3.597 2.407,5.9 0.439,2.304 0.66,4.827 0.66,7.57 v 22.825 h -9.395 V 56.465 c 0,-4.244 -0.518,-7.31 -1.552,-9.2 -1.036,-1.888 -3.028,-2.833 -5.978,-2.833 -1.502,0 -2.924,0.246 -4.27,0.737 -1.347,0.493 -2.355,0.971 -3.027,1.436 0.414,1.295 0.698,2.666 0.854,4.114 0.155,1.45 0.233,3.004 0.233,4.658 v 22.438 h -9.394 v -21.35 z" /><path
       style="fill:#6d6e71"
       inkscape:connector-curvature="0"
       id="path114"
       d="m 431.338,50.874 c 0,4.609 -0.674,8.67 -2.019,12.19 -1.347,3.52 -3.171,6.456 -5.473,8.811 -2.303,2.355 -4.982,4.128 -8.035,5.318 -3.055,1.191 -6.289,1.786 -9.705,1.786 -3.416,0 -6.651,-0.595 -9.704,-1.786 -3.055,-1.191 -5.733,-2.963 -8.035,-5.318 -2.303,-2.355 -4.128,-5.291 -5.473,-8.811 -1.347,-3.52 -2.019,-7.582 -2.019,-12.19 0,-4.605 0.672,-8.656 2.019,-12.149 1.346,-3.493 3.17,-6.417 5.473,-8.772 2.303,-2.355 4.98,-4.128 8.035,-5.318 3.053,-1.191 6.289,-1.786 9.704,-1.786 3.416,0 6.65,0.595 9.705,1.786 3.053,1.191 5.732,2.963 8.035,5.318 2.303,2.355 4.127,5.279 5.473,8.772 1.346,3.493 2.019,7.544 2.019,12.149 z m -5.59,0 c 0,-3.621 -0.466,-6.87 -1.397,-9.743 -0.932,-2.872 -2.251,-5.318 -3.96,-7.336 -1.708,-2.019 -3.765,-3.558 -6.172,-4.621 -2.408,-1.059 -5.113,-1.591 -8.114,-1.591 -3.002,0 -5.706,0.532 -8.113,1.591 -2.407,1.063 -4.464,2.601 -6.172,4.621 -1.708,2.018 -3.027,4.464 -3.96,7.336 -0.931,2.872 -1.397,6.122 -1.397,9.743 0,3.624 0.466,6.872 1.397,9.744 0.932,2.872 2.251,5.318 3.96,7.336 1.708,2.019 3.765,3.572 6.172,4.658 2.407,1.088 5.111,1.631 8.113,1.631 3.001,0 5.706,-0.542 8.114,-1.631 2.407,-1.086 4.464,-2.639 6.172,-4.658 1.708,-2.018 3.027,-4.464 3.96,-7.336 0.931,-2.872 1.397,-6.12 1.397,-9.744 z" /><path
       style="fill:#6d6e71"
       inkscape:connector-curvature="0"
       id="path116"
       d="m 451.6,74.398 c 4.192,0 7.454,-0.764 9.783,-2.294 2.329,-1.532 3.493,-4.008 3.493,-7.431 0,-1.972 -0.376,-3.619 -1.126,-4.941 -0.75,-1.322 -1.747,-2.439 -2.989,-3.345 -1.242,-0.907 -2.666,-1.685 -4.27,-2.328 -1.604,-0.643 -3.287,-1.324 -5.046,-2.045 -2.226,-0.873 -4.219,-1.772 -5.977,-2.7 -1.76,-0.924 -3.261,-1.972 -4.503,-3.135 -1.243,-1.165 -2.187,-2.497 -2.834,-3.998 -0.648,-1.501 -0.97,-3.261 -0.97,-5.281 0,-4.605 1.526,-8.098 4.58,-10.479 3.053,-2.381 7.298,-3.572 12.733,-3.572 1.448,0 2.872,0.104 4.269,0.31 1.398,0.206 2.704,0.479 3.921,0.815 1.215,0.336 2.329,0.711 3.338,1.126 1.01,0.414 1.85,0.853 2.523,1.32 l -1.863,4.424 c -1.502,-1.035 -3.326,-1.863 -5.473,-2.485 -2.148,-0.621 -4.464,-0.931 -6.949,-0.931 -1.707,0 -3.274,0.169 -4.696,0.505 -1.424,0.338 -2.653,0.88 -3.688,1.631 -1.036,0.75 -1.851,1.695 -2.446,2.833 -0.595,1.139 -0.893,2.512 -0.893,4.116 0,1.656 0.31,3.055 0.932,4.192 0.621,1.139 1.487,2.122 2.6,2.949 1.113,0.829 2.419,1.579 3.921,2.251 1.5,0.674 3.131,1.373 4.891,2.096 2.122,0.882 4.127,1.76 6.017,2.64 1.889,0.88 3.532,1.915 4.93,3.106 1.397,1.191 2.51,2.639 3.338,4.348 0.827,1.707 1.243,3.804 1.243,6.289 0,4.864 -1.696,8.513 -5.085,10.945 -3.391,2.434 -7.984,3.65 -13.781,3.65 -2.071,0 -3.96,-0.13 -5.667,-0.389 -1.708,-0.259 -3.236,-0.582 -4.58,-0.971 -1.347,-0.387 -2.484,-0.788 -3.416,-1.202 -0.931,-0.414 -1.657,-0.776 -2.174,-1.088 l 1.708,-4.58 c 0.517,0.31 1.215,0.674 2.096,1.086 0.879,0.414 1.914,0.815 3.105,1.204 1.191,0.387 2.535,0.711 4.037,0.971 1.501,0.26 3.156,0.388 4.968,0.388 z" /></g></svg>