<?xml version="1.0" encoding="utf-8"?>
<!-- Generator: Adobe Illustrator 17.0.0, SVG Export Plug-In . SVG Version: 6.00 Build 0)  -->
<!DOCTYPE svg PUBLIC "-//W3C//DTD SVG 1.1//EN" "http://www.w3.org/Graphics/SVG/1.1/DTD/svg11.dtd">
<svg version="1.1" id="Layer_1" xmlns="http://www.w3.org/2000/svg" xmlns:xlink="http://www.w3.org/1999/xlink" x="0px" y="0px"
	 width="100.242px" height="100.242px" viewBox="0 0 100.242 100.242" enable-background="new 0 0 100.242 100.242"
	 xml:space="preserve">
<g>
	<g>
		<g>
			<path fill="#2F7AA2" d="M52.553,32.644c3.826,0.197,7.29,1.759,9.916,4.211c0.225,0.21,0.442,0.429,0.654,0.651
				c0.691,0.666,1.309,1.406,1.839,2.211l0.001-0.001l0.041,0.068c0.143,0.22,0.279,0.444,0.408,0.672l34.829,51.061V-0.148l0,0
				L52.553,32.644z"/>
		</g>
		<g>
			<path fill="#2F7AA2" d="M47.689,67.302c-3.826-0.197-7.29-1.759-9.916-4.21c-0.225-0.21-0.442-0.429-0.655-0.651
				c-0.691-0.666-1.309-1.406-1.839-2.211l-0.001,0.001l-0.041-0.068c-0.143-0.22-0.279-0.444-0.408-0.672L0,8.429v91.665l0,0
				L47.689,67.302z"/>
		</g>
		<g>
			<path fill="#2F7AA2" d="M32.792,47.541c0.197-3.826,1.759-7.29,4.21-9.916c0.21-0.225,0.429-0.442,0.651-0.654
				c0.666-0.691,1.406-1.31,2.211-1.839l-0.001-0.001l0.068-0.041c0.22-0.143,0.444-0.279,0.672-0.408L91.665-0.148H0l0,0
				L32.792,47.541z"/>
		</g>
		<g>
			<path fill="#2F7AA2" d="M67.45,52.405c-0.197,3.826-1.76,7.29-4.21,9.916c-0.21,0.225-0.429,0.442-0.651,0.654
				c-0.666,0.691-1.406,1.309-2.211,1.839l0.001,0.001l-0.068,0.041c-0.22,0.143-0.444,0.279-0.672,0.408L8.577,100.094h91.665l0,0
				L67.45,52.405z"/>
		</g>
	</g>
</g>
</svg>
