<?xml version="1.0" encoding="utf-8"?>
<!-- Generator: Adobe Illustrator 17.0.0, SVG Export Plug-In . SVG Version: 6.00 Build 0)  -->
<!DOCTYPE svg PUBLIC "-//W3C//DTD SVG 1.1//EN" "http://www.w3.org/Graphics/SVG/1.1/DTD/svg11.dtd">
<svg version="1.1" id="Layer_1" xmlns="http://www.w3.org/2000/svg" xmlns:xlink="http://www.w3.org/1999/xlink" x="0px" y="0px"
	 width="100.242px" height="100.242px" viewBox="0 0 100.242 100.242" enable-background="new 0 0 100.242 100.242"
	 xml:space="preserve">
<g id="Layer_2_2_">
	<g>
		<g>
			<g>
				<path fill="#6CB5DD" d="M50.818,33.93c3.942,0.203,7.51,1.813,10.215,4.338c0.232,0.216,0.455,0.442,0.674,0.671
					c0.712,0.686,1.349,1.449,1.895,2.278l0.002-0.001l0.043,0.07c0.147,0.226,0.287,0.457,0.421,0.692L99.946,94.58V0.148l0,0
					L50.818,33.93z"/>
			</g>
			<g>
				<path fill="#65A6CA" d="M99.946,94.579L64.067,41.977c-0.133-0.235-0.274-0.466-0.421-0.692l-0.043-0.07l-0.002,0.001
					c-0.546-0.829-1.183-1.591-1.895-2.278c2.774,2.909,4.482,6.845,4.482,11.182c0,0.261-0.007,0.519-0.02,0.777
					c-0.001,0.022-0.004,0.045-0.005,0.068l33.782,49.128l0,0l0,0L99.946,94.579L99.946,94.579z"/>
			</g>
			<g>
				<path fill="#2F7AA2" d="M49.128,66.313c-3.942-0.203-7.51-1.813-10.215-4.338c-0.232-0.216-0.455-0.442-0.674-0.671
					c-0.712-0.686-1.349-1.449-1.895-2.278l-0.002,0.001l-0.043-0.07c-0.147-0.226-0.287-0.457-0.421-0.692L0,5.663v94.431l0,0
					L49.128,66.313z"/>
			</g>
			<g>
				<path fill="#2E7195" d="M36.3,58.958l0.043,0.07l0.002-0.001c0.546,0.829,1.183,1.591,1.895,2.278
					c-2.775-2.909-4.482-6.845-4.482-11.183c0-0.261,0.007-0.519,0.02-0.777l0,0c0.001-0.022,0.004-0.045,0.005-0.067L0,0.148l0,0
					l0,0v5.515l0,0l35.879,52.602C36.013,58.5,36.153,58.731,36.3,58.958z"/>
			</g>
			<g>
				<path fill="#4F94C1" d="M33.782,49.276c0.203-3.942,1.813-7.51,4.337-10.215c0.216-0.232,0.442-0.455,0.671-0.674
					c0.686-0.712,1.449-1.349,2.278-1.895l-0.001-0.002l0.07-0.043c0.226-0.147,0.457-0.287,0.692-0.421L94.431,0.148H0l0,0
					L33.782,49.276z"/>
			</g>
			<g>
				<path fill="#4B88B1" d="M41.137,36.448l-0.07,0.043l0.001,0.002c-0.829,0.546-1.592,1.183-2.278,1.895
					c2.909-2.775,6.845-4.482,11.183-4.482c0.261,0,0.519,0.007,0.777,0.02c0.022,0.001,0.045,0.004,0.067,0.005L99.946,0.148l0,0
					h-5.515L41.829,36.028C41.594,36.161,41.363,36.301,41.137,36.448z"/>
			</g>
			<g>
				<path fill="#A3C8E9" d="M66.165,50.966c-0.203,3.942-1.813,7.51-4.338,10.215c-0.216,0.232-0.441,0.455-0.671,0.674
					c-0.686,0.712-1.449,1.349-2.278,1.895l0.001,0.002l-0.07,0.043c-0.226,0.147-0.457,0.287-0.692,0.421L5.515,100.094h94.431l0,0
					L66.165,50.966z"/>
			</g>
			<g>
				<path fill="#96B7D5" d="M58.809,63.794l0.07-0.043l-0.001-0.002c0.829-0.546,1.592-1.183,2.278-1.895
					c-2.909,2.775-6.845,4.482-11.183,4.482c-0.261,0-0.519-0.007-0.777-0.02l0,0c-0.022-0.001-0.045-0.004-0.067-0.005L0,100.094
					l0,0h5.515l52.602-35.879C58.352,64.081,58.583,63.941,58.809,63.794z"/>
			</g>
		</g>
	</g>
</g>
</svg>
