<?xml version="1.0" encoding="UTF-8" standalone="no"?>
<!-- Generator: Adobe Illustrator 17.0.0, SVG Export Plug-In . SVG Version: 6.00 Build 0)  -->

<svg
   xmlns:dc="http://purl.org/dc/elements/1.1/"
   xmlns:cc="http://creativecommons.org/ns#"
   xmlns:rdf="http://www.w3.org/1999/02/22-rdf-syntax-ns#"
   xmlns:svg="http://www.w3.org/2000/svg"
   xmlns="http://www.w3.org/2000/svg"
   xmlns:sodipodi="http://sodipodi.sourceforge.net/DTD/sodipodi-0.dtd"
   xmlns:inkscape="http://www.inkscape.org/namespaces/inkscape"
   version="1.1"
   id="Layer_1"
   x="0px"
   y="0px"
   width="240.73801"
   height="240.73801"
   viewBox="0 0 240.73801 240.738"
   enable-background="new 0 0 918.35 240.738"
   xml:space="preserve"
   inkscape:version="0.91 r13725"
   sodipodi:docname="Gallium-transparent.svg"><metadata
     id="metadata53"><rdf:RDF><cc:Work
         rdf:about=""><dc:format>image/svg+xml</dc:format><dc:type
           rdf:resource="http://purl.org/dc/dcmitype/StillImage" /><dc:title></dc:title></cc:Work></rdf:RDF></metadata><defs
     id="defs51" /><sodipodi:namedview
     pagecolor="#ffffff"
     bordercolor="#666666"
     borderopacity="1"
     objecttolerance="10"
     gridtolerance="10"
     guidetolerance="10"
     inkscape:pageopacity="0"
     inkscape:pageshadow="2"
     inkscape:window-width="773"
     inkscape:window-height="480"
     id="namedview49"
     showgrid="false"
     fit-margin-top="0"
     fit-margin-left="0"
     fit-margin-right="0"
     fit-margin-bottom="0"
     inkscape:zoom="0.29727229"
     inkscape:cx="459.17499"
     inkscape:cy="120.369"
     inkscape:window-x="111"
     inkscape:window-y="154"
     inkscape:window-maximized="0"
     inkscape:current-layer="Layer_1" /><g
     id="Layer_1_1_"
     display="none"
     style="display:none"><rect
       x="78.831001"
       y="54.609001"
       display="inline"
       width="362.37799"
       height="362.37799"
       id="rect4"
       style="display:inline;fill:#00a651" /><circle
       display="inline"
       cx="260.01999"
       cy="235.798"
       r="60.811001"
       id="circle6"
       style="display:inline;fill:#ffffff" /><circle
       display="inline"
       cx="260.01999"
       cy="235.798"
       r="60.811001"
       id="circle8"
       style="display:inline;fill:#ffffff" /><circle
       display="inline"
       cx="260.01999"
       cy="235.798"
       r="60.811001"
       id="circle10"
       style="display:inline;fill:#ffffff" /></g><g
     id="g13"><g
       id="g15"><path
         style="fill:#6cb5dd"
         inkscape:connector-curvature="0"
         id="path17"
         d="m 122.403,81.369 c 9.495,0.488 18.09,4.366 24.605,10.448 0.559,0.521 1.097,1.064 1.624,1.617 1.714,1.653 3.249,3.489 4.564,5.486 l 0.004,-0.003 0.103,0.169 c 0.354,0.545 0.692,1.101 1.013,1.668 l 86.422,126.701 0,-227.455 0,0 -118.335,81.369 z" /><path
         style="fill:#65a6ca"
         inkscape:connector-curvature="0"
         id="path19"
         d="M 240.738,227.454 154.316,100.753 c -0.321,-0.567 -0.659,-1.123 -1.013,-1.668 l -0.103,-0.169 -0.004,0.003 c -1.315,-1.997 -2.85,-3.833 -4.564,-5.486 6.682,7.008 10.795,16.488 10.795,26.935 0,0.628 -0.018,1.251 -0.047,1.872 -0.003,0.054 -0.009,0.108 -0.011,0.163 l 81.369,118.334 0,0 0,0 0,-13.283 0,0 z" /><path
         style="fill:#2f7aa2"
         inkscape:connector-curvature="0"
         id="path21"
         d="m 118.334,159.369 c -9.495,-0.488 -18.089,-4.366 -24.605,-10.448 -0.559,-0.521 -1.097,-1.064 -1.624,-1.617 -1.714,-1.653 -3.249,-3.49 -4.564,-5.486 l -0.004,0.003 -0.103,-0.169 c -0.354,-0.545 -0.692,-1.101 -1.013,-1.668 L 0,13.284 l 0,227.454 0,0 118.334,-81.369 z" /><path
         style="fill:#2e7195"
         inkscape:connector-curvature="0"
         id="path23"
         d="m 87.435,141.653 0.103,0.169 0.004,-0.003 c 1.315,1.997 2.85,3.833 4.564,5.486 -6.683,-7.008 -10.795,-16.488 -10.795,-26.936 0,-0.628 0.018,-1.251 0.047,-1.872 l 0,0 c 0.003,-0.054 0.009,-0.108 0.011,-0.162 L 0,0 l 0,0 0,0 0,13.284 0,0 86.422,126.701 c 0.322,0.567 0.659,1.123 1.013,1.668 z" /><path
         style="fill:#4f94c1"
         inkscape:connector-curvature="0"
         id="path25"
         d="m 81.369,118.334 c 0.488,-9.495 4.366,-18.089 10.447,-24.605 0.521,-0.559 1.064,-1.097 1.616,-1.624 1.653,-1.714 3.49,-3.249 5.487,-4.564 l -0.003,-0.004 0.169,-0.103 c 0.545,-0.354 1.101,-0.692 1.668,-1.013 L 227.454,0 0,0 0,0 81.369,118.334 Z" /><path
         style="fill:#4b88b1"
         inkscape:connector-curvature="0"
         id="path27"
         d="m 99.085,87.435 -0.169,0.103 0.003,0.004 c -1.997,1.315 -3.834,2.85 -5.487,4.564 7.008,-6.683 16.488,-10.796 26.936,-10.796 0.628,0 1.251,0.018 1.872,0.047 0.054,0.003 0.108,0.009 0.162,0.011 L 240.737,0 l 0,0 -13.284,0 -126.7,86.422 c -0.567,0.322 -1.123,0.659 -1.668,1.013 z" /><path
         style="fill:#a3c8e9"
         inkscape:connector-curvature="0"
         id="path29"
         d="m 159.369,122.403 c -0.488,9.495 -4.366,18.089 -10.448,24.605 -0.521,0.558 -1.063,1.097 -1.616,1.624 -1.653,1.714 -3.49,3.249 -5.487,4.564 l 0.003,0.004 -0.169,0.103 c -0.545,0.354 -1.101,0.692 -1.668,1.013 l -126.7,86.422 227.454,0 0,0 -81.369,-118.335 z" /><path
         style="fill:#96b7d5"
         inkscape:connector-curvature="0"
         id="path31"
         d="m 141.653,153.302 0.169,-0.103 -0.003,-0.004 c 1.997,-1.315 3.834,-2.85 5.487,-4.564 -7.008,6.683 -16.488,10.796 -26.936,10.796 -0.628,0 -1.251,-0.018 -1.872,-0.047 l 0,0 c -0.054,-0.003 -0.108,-0.009 -0.162,-0.011 L 0,240.738 l 0,0 13.284,0 126.701,-86.422 c 0.567,-0.322 1.123,-0.66 1.668,-1.014 z" /></g></g></svg>